<svg width="32" height="32" viewBox="0 0 32 32" fill="none" xmlns="http://www.w3.org/2000/svg">
<path d="M16.0005 22.0003C16.5526 22.0005 17.0005 22.4481 17.0005 23.0003C17.0004 23.5523 16.5525 24 16.0005 24.0003C15.4483 24.0003 15.0006 23.5524 15.0005 23.0003C15.0005 22.448 15.4482 22.0003 16.0005 22.0003Z" fill="white" fill-opacity="0.7"/>
<path d="M16.0005 10.0003C16.5526 10.0005 17.0005 10.4481 17.0005 11.0003V19.0003C17.0004 19.5523 16.5525 20 16.0005 20.0003C15.4483 20.0003 15.0006 19.5524 15.0005 19.0003V11.0003C15.0005 10.448 15.4482 10.0003 16.0005 10.0003Z" fill="white" fill-opacity="0.7"/>
<path fill-rule="evenodd" clip-rule="evenodd" d="M12.5278 4.06277C14.0634 1.37559 17.9376 1.37553 19.4731 4.06277L30.3042 23.0159L30.437 23.2678C31.7058 25.8865 29.8053 28.9999 26.8306 29.0003H5.17041C2.09922 29.0003 0.173262 25.6825 1.69678 23.0159L12.5278 4.06277ZM17.7368 5.05495C16.969 3.71135 15.032 3.71141 14.2642 5.05495L3.43311 24.0081C2.67148 25.3413 3.63486 27.0003 5.17041 27.0003H26.8306C28.3177 26.9999 29.2683 25.4433 28.6343 24.1341L28.5679 24.0081L17.7368 5.05495Z" fill="white" fill-opacity="0.7"/>
</svg>
