<svg width="32" height="32" viewBox="0 0 32 32" fill="none" xmlns="http://www.w3.org/2000/svg">
<path d="M13.3693 6.22486C13.762 5.90451 14.341 5.92711 14.7072 6.29322C15.0731 6.65935 15.0958 7.23839 14.7755 7.63111L14.7072 7.70729L7.4093 15.0051H27C27.5523 15.0051 28 15.4529 28 16.0051C27.9999 16.5573 27.5522 17.0051 27 17.0051H7.41907L14.7072 24.2932C15.0975 24.6838 15.0976 25.3168 14.7072 25.7073C14.3167 26.0977 13.6836 26.0976 13.2931 25.7073L4.29309 16.7073C3.9026 16.3168 3.90266 15.6838 4.29309 15.2932L13.2931 6.29322L13.3693 6.22486Z" fill="white" fill-opacity="0.7"/>
</svg>
