<svg width="32" height="32" viewBox="0 0 32 32" fill="none" xmlns="http://www.w3.org/2000/svg">
<path d="M16 2C18.2384 2.00001 20.1072 3.69839 20.3095 5.91604L20.5986 9.08403C20.9747 13.2069 23.1508 16.9575 26.5507 19.3419L29.166 21.1759C30.9952 22.4591 31.539 24.9184 30.4199 26.8468C29.3006 28.7754 26.8872 29.5365 24.8554 28.6017L21.9463 27.2638C18.1737 25.5283 13.8263 25.5284 10.0537 27.2638L7.14455 28.6017C5.11283 29.5365 2.69935 28.7754 1.58011 26.8468C0.461029 24.9184 1.00483 22.4591 2.83402 21.1759L5.44924 19.3419C8.84931 16.9573 11.0255 13.2061 11.4014 9.08305L11.6904 5.91604C11.8927 3.69839 13.7615 2 16 2ZM16 4.00001C14.863 4.00001 13.9145 4.80716 13.7119 5.87991L13.6816 6.09768L13.3935 9.26469C12.9775 13.8284 10.6308 17.9904 6.95705 20.7198L6.59767 20.9796L3.98245 22.8136C3.00036 23.5028 2.71356 24.8155 3.3096 25.8429L3.43069 26.0294C4.07126 26.9237 5.27829 27.2594 6.30861 26.7853L9.21778 25.4464L9.62305 25.2667C13.8301 23.469 18.6136 23.5288 22.7822 25.4464L25.6914 26.7853L25.9003 26.8693C26.951 27.2363 28.1287 26.8107 28.6904 25.8429L28.7919 25.6476C29.2179 24.7204 28.9764 23.6175 28.1933 22.9494L28.0175 22.8136L25.4023 20.9796C21.6438 18.3437 19.1934 14.2424 18.6533 9.7061L18.6064 9.26567L18.3183 6.09768C18.2107 4.91831 17.2126 4.00002 16 4.00001Z" fill="white" fill-opacity="0.7"/>
</svg>
