<svg width="32" height="32" viewBox="0 0 32 32" fill="none" xmlns="http://www.w3.org/2000/svg">
<path fill-rule="evenodd" clip-rule="evenodd" d="M11.6902 5.9162C11.8924 3.69846 13.7615 2 16 2C18.2385 2 20.1075 3.69846 20.3097 5.9162L20.5985 9.08363C20.9745 13.2066 23.1507 16.9573 26.5508 19.3418L29.1655 21.1756C30.9952 22.4588 31.5391 24.9182 30.4198 26.8468C29.3005 28.7753 26.8876 29.5365 24.8558 28.6017L21.9466 27.2634C18.1739 25.5278 13.826 25.5278 10.0533 27.2634L7.1441 28.6017C5.11238 29.5365 2.69944 28.7753 1.58021 26.8468C0.460918 24.9182 1.00487 22.4588 2.83438 21.1756L5.44914 19.3418C8.84926 16.9573 11.0255 13.2066 11.4015 9.08347L11.6902 5.9162Z" fill="white" fill-opacity="0.7"/>
</svg>
