<svg width="32" height="32" viewBox="0 0 32 32" fill="none" xmlns="http://www.w3.org/2000/svg">
<path fill-rule="evenodd" clip-rule="evenodd" d="M15.4997 2C21.2987 2 25.9997 6.70101 25.9997 12.5V16.8936C25.9998 17.4446 26.1434 17.9864 26.4167 18.4648L28.1579 21.5117C29.3007 23.5117 27.8568 25.9999 25.5534 26H19.9714C19.7226 28.2499 17.8159 30 15.4997 30C13.1836 29.9999 11.2768 28.2499 11.028 26H5.44598C3.14281 25.9997 1.6989 23.5115 2.84149 21.5117L4.5827 18.4648L4.6784 18.2822C4.88909 17.8505 4.99963 17.3758 4.99969 16.8936V12.5C4.99969 6.70112 9.70086 2.00018 15.4997 2ZM13.0495 26C13.2811 27.1411 14.2903 27.9999 15.4997 28C16.7092 28 17.7182 27.1411 17.9499 26H13.0495ZM15.4997 4C10.8054 4.00018 6.99969 7.80569 6.99969 12.5V16.8936C6.99963 17.6805 6.82015 18.4556 6.47625 19.1602L6.31903 19.457L4.57782 22.5039C4.19712 23.1704 4.67846 23.9997 5.44598 24H25.5534C26.3212 23.9999 26.8025 23.1705 26.4216 22.5039L24.6804 19.457C24.2343 18.6764 23.9998 17.7926 23.9997 16.8936V12.5C23.9997 7.80558 20.1941 4 15.4997 4Z" fill="white" fill-opacity="0.7"/>
</svg>
