<svg width="32" height="32" viewBox="0 0 32 32" fill="none" xmlns="http://www.w3.org/2000/svg">
<path d="M21.2932 9.29311C21.6838 8.90264 22.3168 8.90261 22.7073 9.29311C23.0976 9.68364 23.0977 10.3167 22.7073 10.7072L9.70728 23.7072C9.31683 24.0976 8.68376 24.0975 8.29322 23.7072L2.29322 17.7072L2.22486 17.631C1.90451 17.2382 1.92711 16.6592 2.29322 16.2931C2.65934 15.927 3.23836 15.9044 3.63111 16.2248L3.70729 16.2931L9.00025 21.5861L21.2932 9.29311Z" fill="white" fill-opacity="0.7"/>
<path d="M28.2932 9.29311C28.6838 8.90264 29.3168 8.90261 29.7073 9.29311C30.0976 9.68364 30.0977 10.3167 29.7073 10.7072L16.7073 23.7072C16.3412 24.0732 15.7622 24.0957 15.3694 23.7755L15.2932 23.7072L13.7932 22.2072L13.7249 22.131C13.4045 21.7382 13.4271 21.1592 13.7932 20.7931C14.1593 20.427 14.7384 20.4044 15.1311 20.7248L15.2073 20.7931L16.0003 21.5861L28.2932 9.29311Z" fill="white" fill-opacity="0.7"/>
<path d="M8.29322 15.2931C8.65934 14.927 9.23836 14.9044 9.63111 15.2248L9.70728 15.2931L11.2073 16.7931L11.2756 16.8693C11.5958 17.262 11.5733 17.8411 11.2073 18.2072C10.8412 18.5732 10.2622 18.5957 9.86939 18.2755L9.79322 18.2072L8.29322 16.7072L8.22486 16.631C7.90451 16.2382 7.92711 15.6592 8.29322 15.2931Z" fill="white" fill-opacity="0.7"/>
</svg>
