<svg width="32" height="32" viewBox="0 0 32 32" fill="none" xmlns="http://www.w3.org/2000/svg">
<path d="M16.0002 7.00025C16.5524 7.00038 17.0002 7.44805 17.0002 8.00025V15.5862L20.7073 19.2932L20.7756 19.3694C21.0958 19.7622 21.0733 20.3412 20.7073 20.7073C20.3412 21.0733 19.7622 21.0958 19.3694 20.7756L19.2932 20.7073L15.2932 16.7073C15.1057 16.5198 15.0003 16.2654 15.0002 16.0003V8.00025C15.0002 7.44797 15.448 7.00025 16.0002 7.00025Z" fill="white" fill-opacity="0.7"/>
<path fill-rule="evenodd" clip-rule="evenodd" d="M16.0002 2.00025C23.7321 2.00038 30.0002 8.26835 30.0002 16.0003C30.0001 23.7321 23.732 30.0001 16.0002 30.0003C8.26834 30.0003 2.00037 23.7321 2.00025 16.0003C2.00025 8.26827 8.26826 2.00025 16.0002 2.00025ZM16.0002 4.00025C9.37283 4.00025 4.00025 9.37284 4.00025 16.0003C4.00037 22.6276 9.37291 28.0003 16.0002 28.0003C22.6275 28.0001 28.0001 22.6275 28.0002 16.0003C28.0002 9.37292 22.6276 4.00038 16.0002 4.00025Z" fill="white" fill-opacity="0.7"/>
<path d="M5.36939 1.22486C5.76216 0.904542 6.34117 0.927117 6.70728 1.29322C7.07317 1.65935 7.09592 2.23842 6.77564 2.63111L6.70728 2.70729L2.70728 6.70728L2.63111 6.77564C2.23842 7.09593 1.65934 7.07317 1.29321 6.70728C0.927104 6.34117 0.90452 5.76217 1.22486 5.36939L1.29321 5.29322L5.29321 1.29322L5.36939 1.22486Z" fill="white" fill-opacity="0.7"/>
<path d="M25.2932 1.29322C25.6593 0.927107 26.2383 0.904513 26.6311 1.22486L26.7073 1.29322L30.7073 5.29322L30.7756 5.36939C31.0958 5.76216 31.0733 6.34125 30.7073 6.70728C30.3412 7.07332 29.7622 7.09578 29.3694 6.77564L29.2932 6.70728L25.2932 2.70729L25.2249 2.63111C24.9045 2.23834 24.9271 1.65934 25.2932 1.29322Z" fill="white" fill-opacity="0.7"/>
</svg>
