<svg width="32" height="32" viewBox="0 0 32 32" fill="none" xmlns="http://www.w3.org/2000/svg">
<path d="M28 6C28 4.89543 27.1046 4 26 4H6C4.89543 4 4 4.89543 4 6V21C4 22.1046 4.89543 23 6 23H9C9.55228 23 10 23.4477 10 24V27.0566L15.4189 23.1865L15.5518 23.1064C15.6903 23.037 15.8436 23 16 23H26C27.1046 23 28 22.1046 28 21V6ZM30 21C30 23.2091 28.2091 25 26 25H16.3203L9.58105 29.8135C9.27624 30.0312 8.87506 30.0611 8.54199 29.8896C8.209 29.7182 8 29.3745 8 29V25H6C3.79086 25 2 23.2091 2 21V6C2 3.79086 3.79086 2 6 2H26C28.2091 2 30 3.79086 30 6V21Z" fill="white" fill-opacity="0.7"/>
</svg>
