<svg width="32" height="32" viewBox="0 0 32 32" fill="none" xmlns="http://www.w3.org/2000/svg">
<path d="M16.001 22C16.5527 22.0005 17.0008 22.4482 17.001 23C17.0009 23.5519 16.5527 23.9995 16.001 24C15.4488 24 15.0011 23.5522 15.001 23C15.0011 22.4478 15.4488 22 16.001 22Z" fill="white" fill-opacity="0.7"/>
<path d="M16.001 8C16.5527 8.00053 17.0008 8.44815 17.001 9V19C17.0009 19.5519 16.5527 19.9995 16.001 20C15.4488 20 15.0011 19.5522 15.001 19V9C15.0011 8.44783 15.4488 8 16.001 8Z" fill="white" fill-opacity="0.7"/>
<path fill-rule="evenodd" clip-rule="evenodd" d="M16 2C23.732 2 30 8.26801 30 16C30 23.732 23.732 30 16 30C8.26801 30 2 23.732 2 16C2 8.26801 8.26801 2 16 2ZM16 4C9.37258 4 4 9.37258 4 16C4 22.6274 9.37258 28 16 28C22.6274 28 28 22.6274 28 16C28 9.37258 22.6274 4 16 4Z" fill="white" fill-opacity="0.7"/>
</svg>
