<svg width="32" height="32" viewBox="0 0 32 32" fill="none" xmlns="http://www.w3.org/2000/svg">
<path fill-rule="evenodd" clip-rule="evenodd" d="M15.9999 11C18.7613 11 20.9999 13.2386 20.9999 16C20.9999 18.7614 18.7613 21 15.9999 21C13.2385 20.9999 10.9999 18.7614 10.9999 16C10.9999 13.2386 13.2385 11.0001 15.9999 11ZM15.9999 13C14.3431 13.0001 12.9999 14.3432 12.9999 16C12.9999 17.6568 14.3431 18.9999 15.9999 19C17.6567 19 18.9999 17.6569 18.9999 16C18.9999 14.3431 17.6567 13 15.9999 13Z" fill="white" fill-opacity="0.7"/>
<path fill-rule="evenodd" clip-rule="evenodd" d="M16.5458 1.00977L17.0829 1.03809L17.0868 1.03906L17.3534 1.06934C18.5761 1.26266 19.4949 2.15214 19.8446 3.22656L19.911 3.45898L20.2801 4.98535C20.4419 5.04822 20.6027 5.1137 20.7616 5.18359L22.1044 4.36719C23.138 3.73725 24.5273 3.70676 25.5995 4.48438L25.8094 4.65137L25.8114 4.65332L26.2157 5.01562C26.6123 5.38493 26.9897 5.77652 27.3465 6.18945C28.2964 7.28536 28.3053 8.79548 27.6336 9.89844L27.6327 9.89746L26.8163 11.2393C26.8862 11.3974 26.9531 11.5573 27.0165 11.7188L28.5419 12.0908H28.5438L28.7753 12.1572C29.9227 12.5322 30.8656 13.5574 30.9618 14.916C31.0134 15.6382 31.0124 16.3618 30.9608 17.084L30.9618 17.085C30.8657 18.4427 29.9233 19.4696 28.7743 19.8438L28.5419 19.9102L27.0155 20.2812C26.9525 20.4426 26.8862 20.6025 26.8163 20.7607L27.6327 22.1035L27.7508 22.3145C28.301 23.3936 28.2353 24.7835 27.3485 25.8105L27.3475 25.8115C26.8727 26.3598 26.3587 26.8732 25.8094 27.3477L25.8104 27.3486C24.7825 28.2394 23.3915 28.3001 22.3133 27.751L22.1014 27.6328L20.7626 26.8164C20.6031 26.8867 20.4419 26.9534 20.2801 27.0166L19.911 28.541C19.6059 29.7957 18.5316 30.8575 17.0848 30.96L17.0858 30.9609C16.3628 31.0126 15.6379 31.0127 14.9149 30.9609C13.5587 30.8643 12.5314 29.9248 12.1571 28.7744L12.0907 28.542L11.7186 27.0156C11.5576 26.9533 11.3981 26.8864 11.2401 26.8164L9.89732 27.6318L9.8983 27.6328C8.79623 28.306 7.28767 28.2951 6.19224 27.3496L6.19127 27.3486C5.64295 26.8737 5.12983 26.3611 4.65416 25.8105C3.7045 24.7147 3.69731 23.2055 4.369 22.1025L5.18541 20.7607C5.11594 20.6025 5.04919 20.4425 4.98619 20.2812L3.4608 19.9102C2.2085 19.605 1.14475 18.534 1.0399 17.0879L1.00963 16.5439C0.9897 16.0003 1.00002 15.4563 1.0399 14.9131C1.14475 13.467 2.20851 12.3959 3.4608 12.0908L4.98619 11.7188C5.04886 11.5577 5.11546 11.3979 5.18541 11.2393L4.36803 9.89746C3.69554 8.7939 3.70807 7.28532 4.65318 6.19043L4.65416 6.18848L5.01842 5.7832C5.38921 5.38485 5.78109 5.00731 6.19322 4.65137C7.28925 3.7028 8.79742 3.69616 9.89927 4.36719L11.2411 5.18359C11.3991 5.11397 11.5584 5.04792 11.7186 4.98535L12.0907 3.45898L12.1571 3.22656C12.5317 2.07513 13.5594 1.13871 14.9129 1.03906L14.9178 1.03809L15.4549 1.00977C15.6358 1.00318 15.8185 1.00001 16.0018 1L16.5458 1.00977ZM15.5282 3.00879C15.3702 3.01454 15.2119 3.02341 15.0545 3.03418L15.0536 3.0332C14.6207 3.0675 14.257 3.35373 14.0926 3.75293L14.034 3.93164L13.5848 5.77734L13.5819 5.79102C13.4703 6.22341 13.1368 6.59116 12.6698 6.75977L12.6708 6.76074C12.5272 6.81306 12.3845 6.86843 12.244 6.92676L11.828 7.11133L11.8211 7.11426C11.3894 7.31333 10.8858 7.30891 10.4823 7.06445L10.4813 7.06348L8.85924 6.07617C8.42464 5.81159 7.87648 5.83958 7.50181 6.16406L7.49986 6.16504C7.02445 6.57565 6.57995 7.02107 6.16588 7.49902L6.1649 7.49805C5.83958 7.87633 5.81347 8.42599 6.07603 8.85645L7.06529 10.4795L7.06627 10.4814L7.14635 10.6357C7.3079 11.0058 7.29322 11.4396 7.11314 11.8242L7.11217 11.8271C6.98411 12.0982 6.8682 12.3796 6.76353 12.668L6.7606 12.6748C6.59676 13.1161 6.24137 13.4722 5.77916 13.585L3.93345 14.0342C3.43879 14.155 3.06968 14.5641 3.03404 15.0586C2.99953 15.5286 2.99141 16.0003 3.00865 16.4707L3.03404 16.9414L3.04478 17.0342C3.11634 17.4871 3.46961 17.8536 3.93345 17.9668L5.77818 18.416L5.79088 18.4189L5.95103 18.4717C6.31493 18.6171 6.61544 18.9245 6.76256 19.3311L6.92955 19.7588L7.11412 20.1787L7.1151 20.1807L7.18052 20.3457C7.3105 20.737 7.27992 21.1668 7.06627 21.5195L7.06529 21.5215L6.07701 23.1436C5.8292 23.5506 5.83841 24.0578 6.10826 24.4287L6.16588 24.501L6.16685 24.5029L6.48228 24.8545C6.80303 25.1995 7.14201 25.5268 7.49888 25.8359L7.57213 25.8936C7.94519 26.164 8.45256 26.1717 8.85533 25.9258L8.85728 25.9248L10.4813 24.9375L10.4823 24.9365L10.6366 24.8564C10.9535 24.7181 11.3185 24.7085 11.659 24.8223L11.827 24.8896L11.8309 24.8916L12.244 25.0752L12.6639 25.2363L12.6756 25.2412L12.8387 25.3125C13.154 25.4719 13.4052 25.7327 13.5321 26.0557L13.5848 26.2217V26.2236L14.034 28.0693L14.0926 28.248C14.2462 28.6215 14.5731 28.8945 14.9657 28.9561L15.0575 28.9668L15.5292 28.9922C16.0004 29.009 16.4723 29.0005 16.9432 28.9668L17.036 28.9561C17.4892 28.8849 17.8551 28.5322 17.9676 28.0693L18.4149 26.2246L18.4178 26.2109L18.4715 26.0469C18.6204 25.6782 18.9341 25.3849 19.3309 25.2412L19.7586 25.0752C19.8994 25.0167 20.0386 24.9541 20.1756 24.8896L20.1795 24.8877L20.3456 24.8223C20.6812 24.7106 21.0461 24.7168 21.3661 24.8564L21.5223 24.9375L23.1424 25.9258L23.3104 26.0107C23.7117 26.1783 24.172 26.1208 24.4999 25.8369L24.5018 25.8359L24.8524 25.5215C25.1978 25.2005 25.5261 24.8605 25.8358 24.5029C26.1616 24.1248 26.1885 23.5755 25.9256 23.1445L25.9247 23.1436L24.9374 21.5205C24.6973 21.1251 24.6802 20.6205 24.8885 20.1758L24.8895 20.1738L25.0741 19.7578C25.1323 19.6178 25.1881 19.4762 25.2401 19.333L25.242 19.3262L25.3114 19.166C25.4943 18.8018 25.8162 18.5155 26.2225 18.416L28.0692 17.9668L28.2479 17.9082C28.6498 17.7427 28.936 17.3765 28.9667 16.9443L28.992 16.4717C29.0089 16.0004 29.0004 15.5286 28.9667 15.0576C28.9317 14.5648 28.5641 14.1559 28.0682 14.0342L26.2235 13.585L26.2108 13.582C25.7706 13.4686 25.407 13.1289 25.2411 12.6699L25.0751 12.2451C25.0163 12.1045 24.9546 11.9645 24.8895 11.8262L24.8856 11.8193C24.6848 11.3835 24.6943 10.8807 24.9374 10.4805L25.9247 8.8584L26.0106 8.69043C26.1781 8.2892 26.1204 7.82835 25.8358 7.5L25.8348 7.49805C25.424 7.02249 24.9786 6.57836 24.5028 6.16504L24.4295 6.10742C24.0566 5.83714 23.549 5.82835 23.1444 6.0752L21.5223 7.06348C21.1716 7.2769 20.74 7.31129 20.3436 7.17871L20.1766 7.11133C19.8997 6.98157 19.619 6.86511 19.3348 6.7627L19.326 6.75977C18.888 6.59713 18.5286 6.24313 18.4149 5.77832V5.77637L17.9676 3.93164L17.91 3.75293C17.7451 3.35224 17.3791 3.06578 16.9461 3.0332C16.6298 3.01166 16.314 3.00001 16.0018 3L15.5282 3.00879Z" fill="white" fill-opacity="0.7"/>
</svg>
