<svg width="32" height="32" viewBox="0 0 32 32" fill="none" xmlns="http://www.w3.org/2000/svg">
<path d="M16 2C8.26564 2 2 8.26383 2 15.996C2 22.1898 6.00782 27.4205 11.5722 29.2743C12.2722 29.3964 12.5344 28.9778 12.5344 28.6101C12.5344 28.2768 12.5178 27.1749 12.5178 26.0031C9 26.6507 8.09 25.1455 7.81 24.3592C7.65218 23.9558 6.97 22.714 6.37436 22.3819C5.88436 22.1198 5.18436 21.4722 6.35782 21.4544C7.46 21.4366 8.24782 22.4684 8.51 22.8896C9.77 25.0055 11.7822 24.4113 12.5878 24.0436C12.71 23.1339 13.0778 22.5219 13.48 22.172C10.3656 21.8221 7.11 20.6146 7.11 15.2618C7.11 13.7388 7.65218 12.4792 8.54564 11.4994C8.40564 11.1495 7.91564 9.71559 8.68564 7.79051C8.68564 7.79051 9.85655 7.42407 12.5344 9.22573C13.6544 8.91018 14.8456 8.75241 16.0344 8.75241C17.2256 8.75241 18.4144 8.91018 19.5344 9.22573C22.2122 7.40626 23.3844 7.79051 23.3844 7.79051C24.1544 9.71559 23.6644 11.1495 23.5244 11.4994C24.4178 12.4792 24.96 13.7222 24.96 15.2618C24.96 20.6312 21.6878 21.8221 18.5722 22.1707C19.08 22.6097 19.5178 23.4494 19.5178 24.7612C19.5178 26.6329 19.5 28.1381 19.5 28.6101C19.5 28.9766 19.7622 29.4143 20.4622 29.2743C23.2412 28.336 25.6561 26.5503 27.367 24.1685C29.0779 21.7866 29.9988 18.9283 30 15.996C30 8.26383 23.7356 2 16 2Z" fill="white" fill-opacity="0.7"/>
</svg>
