<svg width="32" height="32" viewBox="0 0 32 32" fill="none" xmlns="http://www.w3.org/2000/svg">
<path d="M16 3C16.5523 3 17 3.44772 17 4C17 4.55228 16.5523 5 16 5H10C8.89543 5 8 5.89543 8 7V25C8 26.1046 8.89543 27 10 27H16C16.5523 27 17 27.4477 17 28C17 28.5523 16.5523 29 16 29H10C7.79086 29 6 27.2091 6 25V7C6 4.79086 7.79086 3 10 3H16Z" fill="white" fill-opacity="0.7"/>
<path d="M20.293 10.293C20.6591 9.92701 21.2381 9.9044 21.6309 10.2246L21.707 10.293L26.707 15.293C27.0973 15.6835 27.0974 16.3166 26.707 16.707L21.707 21.707C21.3166 22.0974 20.6835 22.0973 20.293 21.707C19.9026 21.3165 19.9026 20.6835 20.293 20.293L23.5859 17H15C14.4478 17 14.0002 16.5521 14 16C14.0001 15.4478 14.4478 15 15 15H23.5859L20.293 11.707L20.2246 11.6309C19.9044 11.2381 19.927 10.659 20.293 10.293Z" fill="white" fill-opacity="0.7"/>
</svg>
