<svg width="32" height="32" viewBox="0 0 32 32" fill="none" xmlns="http://www.w3.org/2000/svg">
<path fill-rule="evenodd" clip-rule="evenodd" d="M15.0842 2.03046C18.4733 1.8084 21.8281 2.82613 24.5226 4.89374C27.217 6.96137 29.069 9.93772 29.7316 13.2687L29.8156 13.7316C30.1964 16.0509 29.9853 18.4177 29.218 20.6154C28.5359 22.5685 26.4768 23.3691 24.675 23.0266C23.5411 22.8108 22.6195 22.12 22.0744 21.2014C20.6072 22.9132 18.4315 24.0001 16.0002 24.0002C11.582 24.0002 8.00034 20.4183 8.00018 16.0002C8.00018 11.5819 11.5819 8.00018 16.0002 8.00018C20.4183 8.00034 24.0002 11.582 24.0002 16.0002C24.0002 16.3994 23.9688 16.7915 23.9123 17.175C23.9091 17.2189 23.9049 17.2635 23.8957 17.3078L23.8654 17.4484C23.841 17.5821 23.8134 17.7146 23.7824 17.8459L23.5734 18.8527C23.3612 19.872 24.0262 20.8672 25.049 21.0617C26.1169 21.2646 27.0481 20.761 27.3293 19.9562C27.987 18.0725 28.1684 16.0437 27.842 14.0558L27.7697 13.6594C27.2018 10.8042 25.6144 8.25195 23.3049 6.47967C20.9953 4.70767 18.1198 3.83526 15.215 4.02557C12.3101 4.21605 9.57336 5.45631 7.51483 7.51483C5.45631 9.57336 4.21605 12.3101 4.02557 15.215C3.83526 18.1198 4.70767 20.9953 6.47967 23.3049C8.25195 25.6144 10.8042 27.2018 13.6594 27.7697C16.5145 28.3375 19.4791 27.8482 22.0002 26.3928C22.4785 26.1167 23.0903 26.2807 23.3664 26.759C23.6418 27.2371 23.478 27.8482 23.0002 28.1242C20.0588 29.8224 16.5999 30.3941 13.2687 29.7316C9.93772 29.069 6.96137 27.217 4.89374 24.5226C2.82613 21.8281 1.8084 18.4733 2.03046 15.0842C2.25269 11.6951 3.69917 8.50237 6.10077 6.10077C8.50237 3.69917 11.6951 2.25269 15.0842 2.03046ZM16.0002 10.0002C12.6865 10.0002 10.0002 12.6865 10.0002 16.0002C10.0003 19.3138 12.6866 22.0002 16.0002 22.0002C18.8257 22 21.1937 20.0461 21.8303 17.4162L21.9074 17.0441C21.9669 16.705 22.0002 16.3564 22.0002 16.0002C22.0002 12.6866 19.3138 10.0003 16.0002 10.0002Z" fill="white" fill-opacity="0.7"/>
</svg>
