<svg width="32" height="32" viewBox="0 0 32 32" fill="none" xmlns="http://www.w3.org/2000/svg">
<path d="M21.6336 4.24121C21.8925 3.793 22.4467 3.62134 22.9089 3.8291L22.9998 3.87598L23.4929 4.17383C25.9258 5.71525 27.8286 7.97313 28.9343 10.6426L29.1443 11.1797C30.1358 13.8833 30.2708 16.8324 29.5232 19.623C28.7754 22.4138 27.1831 24.9003 24.9724 26.7461L24.5222 27.1074C22.0773 28.9833 19.0814 30 15.9998 30C13.1106 29.9999 10.2971 29.1058 7.94215 27.4482L7.4773 27.1074C5.18526 25.3486 3.49675 22.9263 2.63746 20.1777L2.47633 19.623C1.6789 16.6465 1.88601 13.4896 3.06519 10.6426L3.29762 10.1143C4.50829 7.50138 6.4978 5.32059 8.99976 3.87598L9.09059 3.8291C9.55281 3.62118 10.1069 3.79302 10.366 4.24121C10.6421 4.71946 10.478 5.33125 9.99976 5.60742L9.57691 5.86328C7.63075 7.09643 6.08066 8.86462 5.11207 10.9551L4.91285 11.4082C3.90221 13.8485 3.72541 16.5542 4.40894 19.1055L4.54664 19.5811C5.28319 21.9369 6.73054 24.013 8.69508 25.5205L9.09254 25.8135C11.1111 27.2343 13.5233 27.9999 15.9998 28C18.6411 28 21.2088 27.1283 23.3045 25.5205L23.6912 25.2109C25.5858 23.6289 26.9496 21.4974 27.5906 19.1055C28.2315 16.7134 28.1163 14.1857 27.2664 11.8682L27.0867 11.4082C26.1389 9.12015 24.5079 7.18449 22.4226 5.86328L21.9998 5.60742L21.9138 5.55176C21.5031 5.25524 21.3748 4.68946 21.6336 4.24121Z" fill="white" fill-opacity="0.7"/>
<path d="M15.9998 2C16.552 2 16.9998 2.44772 16.9998 3V16C16.9998 16.5523 16.552 17 15.9998 17C15.4476 16.9998 14.9998 16.5522 14.9998 16V3C14.9998 2.44781 15.4476 2.00015 15.9998 2Z" fill="white" fill-opacity="0.7"/>
</svg>
