<svg width="32" height="32" viewBox="0 0 32 32" fill="none" xmlns="http://www.w3.org/2000/svg">
<path d="M16.0049 9C16.5572 9 17.0049 9.44772 17.0049 10V15H22.0049C22.5572 15 23.0049 15.4477 23.0049 16C23.0049 16.5523 22.5572 17 22.0049 17H17.0049V22C17.0049 22.5523 16.5572 23 16.0049 23C15.4527 22.9999 15.0049 22.5522 15.0049 22V17H10.0049C9.45265 16.9999 9.00488 16.5522 9.00488 16C9.00488 15.4478 9.45265 15.0001 10.0049 15H15.0049V10C15.0049 9.44776 15.4527 9.00007 16.0049 9Z" fill="white" fill-opacity="0.7"/>
</svg>
