<svg width="32" height="32" viewBox="0 0 32 32" fill="none" xmlns="http://www.w3.org/2000/svg">
<path d="M16 22C16.5523 22 17 22.4477 17 23C17 23.5523 16.5523 24 16 24C15.4477 24 15 23.5523 15 23C15 22.4477 15.4477 22 16 22Z" fill="white" fill-opacity="0.7"/>
<path d="M16 8.02051C17.5475 8.02051 18.8342 8.44549 19.7393 9.30566C20.6489 10.1703 21.0458 11.3545 21.0459 12.6113C21.0457 14.1076 20.0988 15.169 19.2979 15.9297C19.0893 16.1278 18.8752 16.32 18.6729 16.5C18.4667 16.6835 18.2739 16.8534 18.0908 17.0244C17.8124 17.2845 17.5862 17.5185 17.4131 17.7412L17.2578 17.96C17.1258 18.168 17.0555 18.416 17.0225 18.6348C17.0067 18.7397 17.0007 18.8279 16.999 18.8857V18.9463L16.998 18.9453L16.999 19.0449C16.9768 19.5512 16.5744 19.9682 16.0576 19.998C15.5408 20.0276 15.0928 19.6595 15.0127 19.1592L15.002 19.0566V19.0547L15.001 19.0518C15.001 19.0518 15.0011 19.0472 15.001 19.0449C15.0007 19.0402 15.0002 19.0345 15 19.0283C14.9995 19.0154 14.9994 18.9988 14.999 18.9795C14.9984 18.9407 14.9982 18.889 15 18.8271C15.0036 18.7035 15.0152 18.5333 15.0449 18.3359C15.1033 17.9492 15.2395 17.4084 15.5693 16.8887L15.6953 16.7012C15.999 16.2716 16.3715 15.8943 16.7256 15.5635C16.9303 15.3723 17.1433 15.1834 17.3428 15.0059C17.5462 14.8248 17.7388 14.6524 17.9209 14.4795C18.6824 13.7562 19.0458 13.2089 19.0459 12.6113C19.0458 11.774 18.7894 11.1617 18.3613 10.7549C17.9285 10.3437 17.1922 10.0205 16 10.0205C14.724 10.0205 14.0164 10.4979 13.6045 10.9648C13.2699 11.3442 13.1022 11.7531 13.0303 11.9883L12.9873 12.1582C12.8999 12.7035 12.3871 13.0747 11.8418 12.9873C11.2966 12.8999 10.9254 12.387 11.0127 11.8418L11.0488 11.6602C11.1578 11.1875 11.4523 10.3812 12.1045 9.6416C12.8848 8.75691 14.1335 8.02051 16 8.02051Z" fill="white" fill-opacity="0.7"/>
<path fill-rule="evenodd" clip-rule="evenodd" d="M16 2C23.732 2 30 8.26801 30 16C30 23.732 23.732 30 16 30C8.26801 30 2 23.732 2 16C2 8.26801 8.26801 2 16 2ZM16 4C9.37258 4 4 9.37258 4 16C4 22.6274 9.37258 28 16 28C22.6274 28 28 22.6274 28 16C28 9.37258 22.6274 4 16 4Z" fill="white" fill-opacity="0.7"/>
</svg>
