<svg width="32" height="32" viewBox="0 0 32 32" fill="none" xmlns="http://www.w3.org/2000/svg">
<path d="M3.3252 19.0577C3.81767 18.8981 4.34458 19.1408 4.54883 19.6045L4.58496 19.7002L4.73242 20.129C5.51093 22.2535 6.87607 24.1176 8.67285 25.503L9.03711 25.7735C10.88 27.0864 13.0599 27.8538 15.3252 27.9815L15.7773 27.9981C18.0398 28.0401 20.2717 27.4414 22.2129 26.2667L22.5957 26.0245C24.1598 24.9953 25.4576 23.6157 26.3906 22H25C24.4477 22 24 21.5523 24 21C24 20.4478 24.4477 20 25 20H29C29.5523 20 30 20.4478 30 21V25C30 25.5523 29.5523 26 29 26C28.4477 26 28 25.5523 28 25V23.2071C26.9215 25.0028 25.4528 26.539 23.6953 27.6954L23.248 27.9776C20.9833 29.3481 18.3797 30.0471 15.7402 29.9981L15.2119 29.9776C12.569 29.8286 10.026 28.9343 7.87598 27.4024L7.45215 27.087C5.35584 25.4707 3.76281 23.2961 2.85449 20.8174L2.68262 20.3174L2.65527 20.2188C2.54834 19.7232 2.83258 19.2174 3.3252 19.0577Z" fill="white" fill-opacity="0.7"/>
<path d="M9.30469 3.70415C11.6166 2.44526 14.2406 1.86242 16.875 2.02739C19.685 2.20342 22.3768 3.22292 24.5986 4.9522L25.0088 5.28325C26.8897 6.86433 28.3217 8.91304 29.1602 11.2227L29.3301 11.7217L29.3564 11.8204C29.462 12.3162 29.1767 12.8213 28.6836 12.9795C28.1906 13.1377 27.6648 12.8932 27.4619 12.4288L27.4258 12.3331L27.2793 11.9053C26.5606 9.9257 25.3338 8.16967 23.7217 6.8145L23.3711 6.53032C21.4666 5.04799 19.1587 4.17438 16.75 4.02349C14.3415 3.87266 11.9436 4.45171 9.86914 5.68462C8.09814 6.73726 6.63488 8.2261 5.61035 10H7C7.55227 10 7.99997 10.4478 8 11C8 11.5523 7.55228 12 7 12H3C2.44772 12 2 11.5523 2 11V7.00005C2.00003 6.44779 2.44773 6.00005 3 6.00005C3.55227 6.00005 3.99997 6.44779 4 7.00005V8.78911C5.18812 6.81206 6.85083 5.15223 8.84668 3.96587L9.30469 3.70415Z" fill="white" fill-opacity="0.7"/>
</svg>
