<svg width="32" height="32" viewBox="0 0 32 32" fill="none" xmlns="http://www.w3.org/2000/svg">
<path fill-rule="evenodd" clip-rule="evenodd" d="M11.541 17.0068C11.9833 17.0365 12.4146 17.1656 12.8232 17.3428C13.7971 17.7651 14.8709 18 16 18C16.9881 18 17.9341 17.8202 18.8076 17.4922L19.1768 17.3428C19.5854 17.1656 20.0167 17.0365 20.459 17.0068L20.6494 17H22C25.866 17 29 20.134 29 24V27C29 28.6569 27.6569 30 26 30H6C4.34315 30 3 28.6569 3 27V24C3 20.134 6.13401 17 10 17H11.3506L11.541 17.0068ZM10 19C7.23858 19 5 21.2386 5 24V27C5 27.5523 5.44772 28 6 28H26C26.5523 28 27 27.5523 27 27V24C27 21.2386 24.7614 19 22 19H20.6494C20.5041 19 20.2867 19.0415 19.9727 19.1777C18.7532 19.7066 17.4088 20 16 20C14.7673 20 13.5838 19.7757 12.4902 19.3652L12.0273 19.1777C11.7133 19.0415 11.4959 19 11.3506 19H10Z" fill="white" fill-opacity="0.7"/>
<path fill-rule="evenodd" clip-rule="evenodd" d="M16 2C19.3137 2 22 4.68629 22 8V10C22 13.3137 19.3137 16 16 16C12.6863 16 10 13.3137 10 10V8C10 4.68629 12.6863 2 16 2ZM16 4C13.7909 4 12 5.79086 12 8V10C12 12.2091 13.7909 14 16 14C18.2091 14 20 12.2091 20 10V8C20 5.79086 18.2091 4 16 4Z" fill="white" fill-opacity="0.7"/>
</svg>
